<?xml version="1.0" standalone="no"?>
<!DOCTYPE svg PUBLIC "-//W3C//DTD SVG 20010904//EN"
 "http://www.w3.org/TR/2001/REC-SVG-20010904/DTD/svg10.dtd">
<svg version="1.0" xmlns="http://www.w3.org/2000/svg"
 width="300.000000pt" height="300.000000pt" viewBox="0 0 300.000000 300.000000"
 preserveAspectRatio="xMidYMid meet">
<metadata>
Created by potrace 1.11, written by Peter Selinger 2001-2013
</metadata>
<g transform="translate(0.000000,300.000000) scale(0.100000,-0.100000)"
fill="#000000" stroke="none">
<path d="M1472 2793 c-55 -56 -111 -147 -119 -191 -14 -85 1 -171 37 -199 8
-7 35 -19 60 -27 42 -13 45 -15 42 -46 -3 -44 -49 -127 -73 -133 -12 -3 -17
-12 -14 -25 2 -12 -5 -32 -16 -47 -11 -14 -18 -25 -15 -25 10 0 40 33 61 67
28 44 97 93 185 132 41 18 83 36 92 41 17 10 48 4 48 -9 0 -3 11 -19 25 -35
22 -25 34 -30 84 -34 50 -4 64 0 102 23 50 31 78 62 79 86 0 20 -77 84 -126
105 -75 31 -181 -23 -187 -95 -1 -15 -16 -26 -62 -42 -33 -13 -63 -22 -67 -21
-3 1 -12 -5 -18 -13 -7 -8 -18 -15 -25 -15 -8 0 -27 -11 -43 -25 -24 -20 -31
-22 -36 -10 -3 8 -2 15 2 15 5 0 16 21 25 48 15 40 24 50 65 68 46 20 52 28
92 114 4 8 6 56 5 106 -1 112 -19 149 -66 142 -24 -4 -34 1 -50 24 -35 48 -55
53 -87 21z"/>
<path d="M1153 2405 c-7 -8 -22 -38 -34 -67 -22 -56 -24 -154 -4 -193 26 -50
49 -74 85 -89 37 -15 39 -17 34 -53 -14 -102 -58 -300 -68 -310 -3 -3 -7 0
-10 8 -2 8 -7 23 -11 34 -4 11 -9 38 -11 59 -2 22 -8 44 -13 50 -5 6 -12 27
-16 47 -4 20 -31 80 -61 134 -30 54 -54 102 -54 107 0 4 -5 8 -11 8 -5 0 -8
-4 -5 -9 10 -15 29 -66 33 -86 2 -10 12 -28 22 -40 25 -27 59 -96 65 -131 2
-16 5 -29 6 -29 2 0 7 -19 15 -59 5 -24 3 -27 -12 -21 -10 4 -24 8 -31 8 -7 0
-20 13 -28 29 -8 15 -18 28 -23 28 -5 0 -12 12 -15 26 -17 65 -129 118 -213
100 -47 -10 -153 -85 -153 -109 0 -17 34 -82 50 -94 20 -17 87 -36 132 -38 49
-2 135 31 143 54 8 28 47 59 52 43 3 -7 11 -19 20 -27 14 -15 9 -40 -6 -30
-14 8 -74 -38 -94 -73 -21 -36 -33 -117 -18 -126 10 -7 7 -42 -11 -120 -6 -27
-13 -68 -15 -90 -6 -65 -6 -66 -12 -66 -3 0 -21 17 -41 38 -19 20 -52 46 -72
57 -37 19 -48 38 -29 50 6 3 13 26 17 51 6 45 5 51 -34 132 -19 40 -95 82
-158 88 l-42 3 -20 -67 c-40 -129 -37 -148 28 -213 63 -63 112 -77 164 -49 21
11 27 10 41 -4 9 -9 23 -16 30 -16 7 0 34 -21 60 -46 44 -45 46 -48 44 -101
-1 -30 -6 -56 -11 -59 -4 -3 -8 -16 -8 -30 0 -14 -5 -34 -10 -44 -6 -11 -6
-21 -1 -24 5 -3 12 6 16 22 5 15 9 32 11 37 2 6 11 46 22 90 21 93 23 98 81
160 51 56 155 111 226 121 28 3 64 8 80 11 17 2 71 6 120 8 50 3 104 7 120 10
26 6 33 3 44 -19 24 -45 92 -57 161 -30 32 13 44 26 60 62 17 38 18 50 9 77
-35 97 -178 88 -246 -15 -27 -40 -38 -49 -71 -55 -21 -3 -43 -5 -48 -4 -5 1
-11 0 -14 -1 -3 -1 -23 -4 -45 -5 -22 -2 -80 -11 -129 -19 -48 -9 -92 -13 -97
-10 -9 5 21 42 85 105 26 26 30 27 50 14 35 -23 127 -30 163 -12 17 9 33 13
37 10 3 -4 6 -2 6 4 0 6 14 16 31 23 18 8 38 28 48 49 19 38 42 103 39 111 -1
3 4 15 10 27 11 20 9 24 -15 37 -50 25 -155 56 -193 56 -40 0 -72 -20 -130
-80 -43 -45 -65 -126 -44 -165 12 -23 9 -28 -28 -67 l-40 -43 6 30 c3 17 10
57 16 90 17 110 43 200 63 216 11 9 17 21 13 28 -7 11 22 58 66 105 10 11 18
23 18 27 0 4 7 15 16 23 14 15 14 16 -1 16 -15 0 -15 2 -1 22 40 57 0 173 -87
254 -59 55 -91 66 -114 39z m-10 -820 c-5 -50 -32 -105 -58 -119 -30 -17 -97
-68 -122 -93 -20 -21 -23 -21 -31 -6 -7 11 -5 30 4 55 15 43 14 39 14 72 0 22
4 24 38 21 30 -3 46 3 84 31 40 28 49 41 55 76 5 33 8 38 13 23 4 -11 5 -38 3
-60z"/>
<path d="M1422 2338 c-3 -37 2 -35 12 5 3 15 3 27 -2 27 -4 0 -9 -14 -10 -32z"/>
<path d="M700 2307 c-19 -7 -39 -14 -45 -15 -13 -4 -52 -32 -79 -57 -31 -29
-29 -95 3 -129 14 -14 29 -25 35 -24 6 0 18 -2 26 -5 45 -18 120 -35 120 -26
0 5 11 9 24 9 34 0 122 48 141 77 11 16 22 22 35 18 52 -16 -45 106 -111 140
-41 22 -109 27 -149 12z"/>
<path d="M1410 2240 c0 -5 5 -10 10 -10 6 0 10 5 10 10 0 6 -4 10 -10 10 -5 0
-10 -4 -10 -10z"/>
<path d="M1552 2215 c-24 -13 -52 -34 -64 -46 -32 -36 -58 -102 -52 -132 3
-17 0 -27 -8 -27 -15 0 -78 -42 -78 -52 0 -4 15 1 33 12 41 25 54 25 62 0 3
-11 11 -20 16 -20 5 0 19 -9 31 -20 26 -24 108 -41 167 -35 28 3 57 16 81 35
20 16 40 27 43 24 7 -7 87 111 87 129 0 23 -63 83 -125 117 -76 43 -133 48
-193 15z"/>
<path d="M2325 2072 c-11 -2 -22 -7 -25 -11 -3 -4 -24 -22 -48 -40 -74 -58
-98 -132 -58 -176 22 -24 24 -39 9 -68 -3 -4 -21 5 -41 21 -20 16 -47 34 -59
41 -49 25 -146 11 -206 -32 -32 -22 -70 -96 -73 -142 -8 -107 -20 -179 -34
-206 -6 -10 -7 -24 -4 -32 2 -8 -9 -29 -26 -46 -16 -18 -44 -51 -62 -73 -27
-35 -33 -38 -43 -25 -6 9 -24 21 -39 27 -19 7 -26 15 -22 26 6 16 -18 61 -44
81 -43 34 -161 26 -186 -13 -22 -33 -27 -120 -9 -148 8 -12 12 -26 8 -30 -5
-4 -8 -11 -9 -14 0 -6 -15 -58 -29 -102 -31 -98 -65 -136 -133 -147 l-36 -6
45 45 c70 72 72 77 30 116 -46 42 -106 71 -149 72 -38 0 -101 -27 -103 -44 -1
-6 -3 -20 -5 -31 -2 -11 -6 -54 -9 -95 -8 -116 -15 -134 -87 -227 -26 -35 -48
-67 -48 -73 0 -5 -3 -10 -7 -10 -5 0 -16 -14 -26 -31 -10 -18 -19 -30 -21 -28
-2 2 2 38 9 79 7 41 11 78 8 83 -2 4 1 7 7 7 6 0 9 3 6 8 -2 4 2 34 10 67 23
99 27 142 13 128 -6 -6 -13 -29 -14 -50 -2 -21 -4 -38 -5 -38 -2 0 -4 -9 -6
-20 -1 -11 -5 -29 -7 -40 -18 -72 -50 -224 -51 -242 -4 -41 -88 -219 -113
-240 -8 -6 -14 -13 -13 -15 2 -4 -13 -41 -43 -111 -15 -31 -26 -60 -26 -62 0
-3 -9 -26 -21 -51 -11 -26 -20 -50 -20 -55 0 -19 16 -8 27 18 68 154 135 295
153 328 35 60 60 113 60 125 0 15 31 61 60 89 60 56 194 99 139 44 -6 -6 -11
-28 -11 -49 0 -31 6 -43 33 -65 19 -15 35 -26 37 -24 2 2 27 -5 55 -15 69 -24
122 -33 150 -26 23 5 24 9 21 73 -5 101 -11 125 -44 160 -35 38 -109 68 -145
59 -14 -4 -37 -20 -52 -36 -14 -17 -33 -30 -40 -30 -8 0 -35 -11 -61 -25 -53
-29 -66 -19 -28 22 15 15 40 49 57 74 22 32 47 52 82 69 52 23 131 48 177 55
58 9 97 15 120 20 58 12 87 17 128 19 23 2 46 7 50 11 4 4 -19 5 -50 1 -32 -3
-58 -4 -58 -1 0 2 14 12 32 21 34 18 51 30 76 56 11 12 20 14 28 8 10 -9 56
-15 94 -11 8 0 33 17 54 36 41 36 48 62 32 118 -7 23 -5 27 11 27 10 0 23 -4
29 -8 5 -5 42 -19 82 -33 39 -13 72 -29 72 -36 0 -13 43 -63 54 -63 4 0 16 -8
26 -18 36 -33 107 -63 134 -56 35 8 115 90 116 119 1 5 11 33 24 60 27 56 25
65 -30 123 -19 20 -34 41 -34 47 -1 16 -79 68 -109 71 -67 8 -89 6 -123 -10
-20 -10 -42 -15 -49 -11 -20 13 52 37 116 40 33 1 76 9 95 17 46 21 150 22
151 2 1 -8 2 -18 3 -23 0 -5 19 -29 41 -53 40 -44 101 -81 118 -71 5 3 23 6
40 8 52 4 90 17 127 42 19 12 40 23 46 23 17 0 23 21 13 45 -4 11 -10 31 -13
45 -6 27 -34 61 -84 100 -18 14 -32 28 -32 31 0 3 24 15 53 27 30 13 66 35 81
51 l27 28 -33 40 c-64 79 -121 97 -195 62 -27 -13 -52 -25 -58 -28 -5 -2 5 12
22 32 41 47 67 95 68 127 0 14 4 31 9 38 13 21 -11 39 -62 47 -26 3 -54 8 -62
9 -8 1 -24 0 -35 -2z m24 -281 c-13 -11 -31 -23 -39 -26 -9 -3 -29 -30 -45
-60 -31 -57 -45 -68 -45 -36 0 11 -5 23 -11 27 -11 7 -6 40 14 87 12 28 23 32
46 18 8 -5 30 -4 55 3 50 16 56 12 25 -13z m-59 -116 c-34 -36 -43 -31 -18 11
14 25 24 32 31 25 8 -8 4 -18 -13 -36z m85 -5 l30 0 -29 -15 c-15 -8 -34 -15
-41 -15 -17 0 -85 -76 -85 -95 0 -10 -10 -15 -30 -15 -16 0 -30 3 -30 8 0 4
30 36 65 72 36 36 65 69 65 75 0 5 5 4 12 -3 7 -7 26 -12 43 -12z m-490 -56
c34 -22 23 -66 -32 -123 -43 -45 -44 -45 -37 -16 4 17 10 37 15 46 4 9 9 37
10 62 3 51 8 55 44 31z m-31 -205 c-10 -12 -17 -23 -16 -25 2 -2 1 -22 -3 -43
-6 -35 -10 -40 -43 -45 -20 -3 -47 -8 -59 -10 -13 -2 -23 -3 -23 -2 0 2 15 19
33 38 17 19 43 48 57 65 25 30 61 55 69 47 2 -2 -4 -13 -15 -25z m-2 -154 c24
-54 6 -55 -102 -7 l-35 16 55 12 c30 6 57 12 60 13 3 0 13 -15 22 -34z m-422
-55 c30 -5 35 -9 35 -33 1 -15 -3 -27 -7 -27 -13 0 -21 -2 -68 -16 -25 -8 -46
-14 -47 -14 -1 0 4 18 12 40 15 42 15 43 15 61 0 5 5 7 12 3 7 -4 28 -10 48
-14z m53 -84 c8 -20 -53 -72 -125 -108 -59 -29 -81 -31 -60 -6 6 7 11 18 12
23 11 51 34 71 105 91 56 16 62 16 68 0z"/>
<path d="M1313 1950 c-13 -5 -23 -15 -22 -22 0 -10 2 -10 6 0 2 6 13 12 24 12
10 0 19 5 19 10 0 6 -1 10 -2 9 -2 0 -13 -4 -25 -9z"/>
<path d="M1715 1080 c-47 -10 -93 -38 -100 -61 -5 -15 -13 -20 -30 -16 -13 2
-30 0 -37 -4 -9 -6 -4 -9 15 -9 16 0 26 -4 22 -10 -25 -40 -13 -132 18 -149
12 -6 42 -26 67 -45 25 -19 55 -35 67 -35 32 -1 65 49 78 121 3 12 9 24 15 26
13 5 13 68 -1 93 -6 11 -27 37 -48 58 -31 31 -41 36 -66 31z"/>
<path d="M1500 1000 c-12 -7 -10 -9 7 -7 12 0 19 5 17 9 -6 10 -6 10 -24 -2z"/>
</g>
</svg>
